<?xml version="1.0" standalone="no"?>
<!DOCTYPE svg PUBLIC "-//W3C//DTD SVG 20010904//EN"
 "http://www.w3.org/TR/2001/REC-SVG-20010904/DTD/svg10.dtd">
<svg version="1.0" xmlns="http://www.w3.org/2000/svg"
 width="615.000000pt" height="615.000000pt" viewBox="0 0 615.000000 615.000000"
 preserveAspectRatio="xMidYMid meet">
<metadata>
Created by potrace 1.11, written by Peter Selinger 2001-2013
</metadata>
<g transform="translate(0.000000,615.000000) scale(0.100000,-0.100000)"
fill="#000000" stroke="none">
<path d="M3121 5068 c-5 -14 -40 -119 -76 -232 l-66 -206 31 -196 c17 -108 30
-198 28 -200 -3 -2 -31 85 -64 194 l-60 197 -34 -3 c-47 -4 -180 -58 -273
-112 -91 -52 -236 -175 -294 -251 -94 -122 -160 -256 -194 -394 -17 -67 -22
-133 -29 -400 -20 -721 -89 -1062 -243 -1201 -45 -41 -49 -47 -43 -78 15 -81
73 -170 174 -268 175 -170 402 -323 687 -463 159 -78 388 -176 445 -190 31 -7
146 32 352 120 512 220 933 555 989 787 10 42 10 53 -1 56 -30 10 -89 76 -117
129 -102 193 -146 492 -163 1098 -10 352 -18 412 -75 553 -92 228 -282 430
-506 539 -98 48 -227 89 -239 77 -4 -5 -34 -96 -66 -201 -32 -106 -59 -191
-62 -189 -2 2 10 93 28 203 l31 198 -75 230 c-66 204 -76 227 -85 203z m-74
-870 c-3 -8 -6 -5 -6 6 -1 11 2 17 5 13 3 -3 4 -12 1 -19z m170 0 c-3 -8 -6
-5 -6 6 -1 11 2 17 5 13 3 -3 4 -12 1 -19z m-544 -999 c155 -67 290 -126 300
-131 16 -8 15 -12 -13 -52 -108 -158 -296 -220 -405 -134 -63 49 -130 194
-155 333 -6 39 -14 78 -17 88 -2 9 -1 17 2 17 4 0 133 -55 288 -121z m1201 89
c-53 -301 -151 -448 -297 -448 -46 0 -136 37 -184 76 -55 46 -127 134 -116
145 9 8 583 258 595 259 4 0 5 -15 2 -32z"/>
</g>
</svg>
